<svg width="33" height="70" viewBox="0 0 33 70" fill="none" xmlns="http://www.w3.org/2000/svg">
<path d="M10.1871 50.3438C9.90588 49.5312 9.65588 48.4844 9.43713 47.2031C9.21838 45.8906 9.10901 44.5938 9.10901 43.3125C9.10901 41.3125 9.49963 39.5156 10.2809 37.9219C11.0934 36.2969 12.0934 34.7812 13.2809 33.375C14.4684 31.9688 15.7653 30.625 17.1715 29.3438C18.5778 28.0312 19.8746 26.7188 21.0621 25.4062C22.2496 24.0625 23.234 22.6719 24.0153 21.2344C24.8278 19.7656 25.234 18.1562 25.234 16.4062C25.234 14.9062 24.9371 13.5781 24.3434 12.4219C23.7809 11.2656 22.9996 10.2969 21.9996 9.51562C20.9996 8.73438 19.8434 8.15625 18.5309 7.78125C17.2184 7.375 15.8278 7.17188 14.359 7.17188C9.07776 7.17188 4.49963 9.25 0.624634 13.4062V5.15625C5.40588 2.15625 10.359 0.65625 15.484 0.65625C17.859 0.65625 20.0934 0.96875 22.1871 1.59375C24.2809 2.21875 26.109 3.15625 27.6715 4.40625C29.2653 5.625 30.5153 7.15625 31.4215 9C32.3278 10.8438 32.7809 12.9844 32.7809 15.4219C32.7809 17.7344 32.3746 19.7969 31.5621 21.6094C30.7496 23.4219 29.7184 25.0938 28.4684 26.625C27.2496 28.125 25.9215 29.5312 24.484 30.8438C23.0465 32.1562 21.7028 33.4688 20.4528 34.7812C19.234 36.0625 18.2184 37.4062 17.4059 38.8125C16.5934 40.2188 16.1871 41.7656 16.1871 43.4531C16.1871 44.8906 16.359 46.2031 16.7028 47.3906C17.0465 48.5469 17.3903 49.5312 17.734 50.3438H10.1871ZM14.4059 69.8438C13.0309 69.8438 11.8121 69.3438 10.7496 68.3438C9.71838 67.3438 9.20276 66.125 9.20276 64.6875C9.20276 63.2188 9.71838 62 10.7496 61.0312C11.7809 60 12.9996 59.4844 14.4059 59.4844C15.8121 59.4844 17.0309 60 18.0621 61.0312C19.0934 62 19.609 63.2188 19.609 64.6875C19.609 66.125 19.0934 67.3438 18.0621 68.3438C16.9996 69.3438 15.7809 69.8438 14.4059 69.8438Z" fill="#FF7588"/>
</svg>
